<svg xmlns="http://www.w3.org/2000/svg" viewBox="0 0 240 120" fill="none" stroke="#708176" stroke-width="1.3" stroke-linecap="round" stroke-linejoin="round">
  <path d="M119 112C116 78 121 48 139 12M118 91C91 78 68 57 51 28M121 80C145 68 164 46 177 20M109 77C88 70 72 58 62 43M132 61C151 53 166 40 176 26M116 61C100 52 89 38 84 21M128 40C141 35 153 24 159 11"/>
  <path d="M49 28c10-4 18-2 24 5-9 5-17 4-24-5ZM62 43c9-2 16 1 20 8-9 3-16 0-20-8ZM84 21c8 2 13 7 14 15-8 0-13-5-14-15ZM139 12c8 3 12 9 12 17-8-1-12-7-12-17ZM159 11c8 0 14 4 17 11-8 2-14-2-17-11ZM177 20c8 2 13 7 14 15-8 0-13-5-14-15Z"/>
</svg>
